HIERARCHY
ROOT Hips
{
	OFFSET 0.00000 0.00000 0.00000
	CHANNELS 6 Xposition Yposition Zposition Zrotation Yrotation Xrotation 
	JOINT LHipJoint
	{
		OFFSET 0 0 0
		CHANNELS 3 Zrotation Yrotation Xrotation
		JOINT LeftHip
		{
			OFFSET 1.46561 -1.72757 0.83774
			CHANNELS 3 Zrotation Yrotation Xrotation
			JOINT LeftKnee
			{
				OFFSET 2.48915 -6.83890 0.00000
				CHANNELS 3 Zrotation Yrotation Xrotation
				JOINT LeftAnkle
				{
					OFFSET 2.60555 -7.15868 0.00000
					CHANNELS 3 Zrotation Yrotation Xrotation
					JOINT LeftToe
					{
						OFFSET 0.19248 -0.52884 2.26738
						CHANNELS 3 Zrotation Yrotation Xrotation
						End Site
						{
							OFFSET 0.00000 -0.00000 1.17015
						}
					}
				}
			}
		}
	}
	JOINT RHipJoint
	{
		OFFSET 0 0 0
		CHANNELS 3 Zrotation Yrotation Xrotation
		JOINT RightHip
		{
			OFFSET -1.46918 -1.72757 0.83774
			CHANNELS 3 Zrotation Yrotation Xrotation
			JOINT RightKnee
			{
				OFFSET -2.49034 -6.84216 0.00000
				CHANNELS 3 Zrotation Yrotation Xrotation
				JOINT RightAnkle
				{
					OFFSET -2.65971 -7.30750 0.00000
					CHANNELS 3 Zrotation Yrotation Xrotation
					JOINT RightToe
					{
						OFFSET -0.19227 -0.52827 2.30785
						CHANNELS 3 Zrotation Yrotation Xrotation
						End Site
						{
							OFFSET -0.00000 -0.00000 1.18972
						}
					}
				}
			}
		}
	}
	JOINT lowerback
	{
		OFFSET 0 0 0
		CHANNELS 3 Zrotation Yrotation Xrotation
		JOINT Chest
		{
			OFFSET 0.02432 2.19909 -0.28000
			CHANNELS 3 Zrotation Yrotation Xrotation
			JOINT Chest2
			{
				OFFSET 0.03714 2.21816 -0.15261
				CHANNELS 3 Zrotation Yrotation Xrotation
				JOINT lowerneck
				{
					OFFSET 0 0 0
					CHANNELS 3 Zrotation Yrotation Xrotation
					JOINT Neck
					{
						OFFSET -0.01896 1.56165 0.21681
						CHANNELS 3 Zrotation Yrotation Xrotation
						JOINT Head
						{
							OFFSET 0.02744 1.56009 0.06764
							CHANNELS 3 Zrotation Yrotation Xrotation
							End Site
							{
								OFFSET 0.01212 1.60574 0.00298
							}
						}
					}
				}
				JOINT LeftCollar
				{
					OFFSET 0 0 0
					CHANNELS 3 Zrotation Yrotation Xrotation
					JOINT LeftShoulder
					{
						OFFSET 3.05595 1.48048 -0.60794
CHANNELS 3 Zrotation Xrotation Yrotation
						JOINT LeftElbow
						{
OFFSET 0 -5.206070 -0.000000
CHANNELS 3 Zrotation Xrotation Yrotation
							JOINT LeftWrist
							{
OFFSET 0 -3.399610 0.000000
CHANNELS 3 Zrotation Xrotation Yrotation
								JOINT lhand
								{
									OFFSET 0 0 0
CHANNELS 3 Zrotation Xrotation Yrotation
									JOINT LFingers
									{
OFFSET 0 -0.519690 0.000000
CHANNELS 3 Zrotation Xrotation Yrotation
										End Site
										{
OFFSET 0 -0.418990 0.000000
										}
									}
								}
								JOINT LThumb
								{
OFFSET 0 0.000000 0.000000
CHANNELS 3 Zrotation Xrotation Yrotation
									End Site
									{
OFFSET 0 -0.425390 0.425390
									}
								}
							}
						}
					}
				}
				JOINT RightCollar
				{
					OFFSET 0 0 0
					CHANNELS 3 Zrotation Yrotation Xrotation
					JOINT RightShoulder
					{
						OFFSET -2.99052 1.57608 -0.69102
CHANNELS 3 Zrotation Xrotation Yrotation
						JOINT RightElbow
						{
OFFSET 0 -5.322140 0.000000
CHANNELS 3 Zrotation Xrotation Yrotation
							JOINT RightWrist
							{
OFFSET 0 -3.512080 0.000000
CHANNELS 3 Zrotation Xrotation Yrotation
								JOINT rhand
								{
									OFFSET 0 0 0
CHANNELS 3 Zrotation Xrotation Yrotation
									JOINT RFingers
									{
OFFSET 0 -0.586680 0.000000
CHANNELS 3 Zrotation Xrotation Yrotation
										End Site
										{
OFFSET 0 -0.473000 0.000000
										}
									}
								}
								JOINT RThumb
								{
OFFSET 0 0.000000 0.000000
CHANNELS 3 Zrotation Xrotation Yrotation
									End Site
									{
OFFSET 0 -0.480220 0.480220
									}
								}
							}
						}
					}
				}
			}
		}
	}
}
MOTION
Frames: 4
Frame Time: 0.008333333333333333
0.230315 23.526826 -7.192620 -1.137345 1.050363 8.648983 0.000000 0.000000 0.000000 -15.199475 1.005406 -33.420546 2.453012 9.751814 28.176877 0.750168 3.572031 15.545099 0.000258 -0.029655 -0.081369 0.000000 0.000000 0.000000 17.644201 3.204110 -35.085976 -3.897574 -12.020296 35.807407 -0.580997 -9.789422 14.253445 -0.793904 -5.685247 15.874386 -3.082430 -1.324957 7.041186 2.391240 -1.924999 3.045850 4.346257 -1.003334 -0.611864 -1.061296 1.183432 -12.838613 -0.545101 2.129119 30.526369 0.274759 0.746004 12.165202 0.000000 0.000000 0.000000 4.832356 -17.009193 -37.638128 11.774858 -19.465792 2.026857 29.144951 -26.323411 10.006622 0.000000 0.000000 0.000000 -7.125000 0.000000 0.000000 1.509089 18.560614 0.950541 0.000000 0.000000 0.000000 -2.495833 -2.847831 15.913484 -13.621502 -22.190985 -2.683496 -20.673163 38.910518 22.615223 0.000000 0.000000 0.000000 7.125000 0.000000 0.000000 8.727445 53.769912 -1.892762
0.227180 23.427109 -7.063931 -1.177984 1.160880 8.465803 0.000000 0.000000 0.000000 -15.185474 0.978701 -33.719524 2.395741 9.645668 27.836837 0.741506 3.752438 15.432687 0.001756 -0.256129 -0.703712 0.000000 0.000000 0.000000 17.635784 3.204508 -35.053580 -3.558193 -11.545708 34.146055 -0.585885 -9.489667 14.227559 -0.695294 -5.328392 14.848128 -3.042695 -1.359273 7.188590 2.417779 -1.970687 3.089532 4.358574 -1.026094 -0.644392 -0.950272 1.189384 -12.907424 -0.598696 2.129153 30.704501 0.236541 0.749447 12.253543 0.000000 0.000000 0.000000 4.526010 -16.921108 -37.294913 11.443078 -18.963969 1.917624 28.973573 -25.806118 9.985987 0.000000 0.000000 0.000000 -7.125000 0.000000 0.000000 1.389885 18.602089 0.874174 0.000000 0.000000 0.000000 -2.262057 -2.494788 15.734483 -13.504590 -22.022034 -2.639503 -20.977879 39.198023 22.767777 0.000000 0.000000 0.000000 7.125000 0.000000 0.000000 8.474459 53.984630 -1.881848
0.224740 23.312133 -6.929196 -1.262628 1.279999 8.281896 0.000000 0.000000 0.000000 -15.119241 0.936864 -33.917721 2.326237 9.514832 27.419376 0.735325 3.934257 15.348410 0.005819 -0.489555 -1.345244 0.000000 0.000000 0.000000 17.659651 3.207583 -34.898963 -3.221150 -11.043348 32.427752 -0.595394 -9.269771 14.272369 -0.610362 -4.999420 13.907099 -2.937241 -1.394698 7.233416 2.450226 -2.011389 3.131097 4.336149 -1.046884 -0.624957 -0.829725 1.187069 -12.902716 -0.654199 2.113719 30.876438 0.193032 0.747461 12.324556 0.000000 0.000000 0.000000 4.216334 -16.842245 -36.900443 11.097773 -18.437721 1.806811 28.756347 -25.194239 9.940849 0.000000 0.000000 0.000000 -7.125000 0.000000 0.000000 1.240103 18.675802 0.777921 0.000000 0.000000 0.000000 -2.017019 -2.164624 15.424319 -13.367233 -21.822916 -2.588229 -21.325342 39.469426 22.941813 0.000000 0.000000 0.000000 7.125000 0.000000 0.000000 8.184576 54.230708 -1.866079
0.223294 23.180434 -6.788146 -1.388803 1.387633 8.096913 0.000000 0.000000 0.000000 -15.003159 0.894717 -34.006760 2.242288 9.353565 26.907563 0.729470 4.058509 15.274393 0.012873 -0.730674 -2.007908 0.000000 0.000000 0.000000 17.710170 3.240020 -34.626393 -2.898224 -10.528013 30.704423 -0.609933 -9.202060 14.405384 -0.551399 -4.756830 13.216219 -2.772089 -1.426258 7.158423 2.486003 -2.041084 3.178747 4.278324 -1.063143 -0.536290 -0.709692 1.177650 -12.872313 -0.710136 2.088518 31.066084 0.147848 0.741099 12.397640 0.000000 0.000000 0.000000 3.908513 -16.769580 -36.444245 10.749086 -17.902546 1.697982 28.511971 -24.429996 9.809429 0.000000 0.000000 0.000000 -7.125000 0.000000 0.000000 1.077158 18.849267 0.671560 0.000000 0.000000 0.000000 -1.764287 -1.883425 14.973422 -13.211401 -21.596185 -2.530613 -21.652292 39.695291 23.092441 0.000000 0.000000 0.000000 7.125000 0.000000 0.000000 7.905422 54.449654 -1.844166
